<svg width="879" height="969" viewBox="0 0 879 969" fill="none" xmlns="http://www.w3.org/2000/svg">
<path opacity="0.45" d="M159.266 457L159.929 456.251L159.266 457ZM298 572L288.681 565.182L299.245 560.52L298 572ZM292.233 561.888C291.066 559.524 289.89 557.257 288.705 555.081L290.462 554.125C291.66 556.325 292.848 558.616 294.027 561.003L292.233 561.888ZM284.892 548.437C283.528 546.185 282.153 544.041 280.766 541.998L282.42 540.875C283.827 542.947 285.222 545.12 286.603 547.401L284.892 548.437ZM276.3 535.815C274.697 533.729 273.078 531.762 271.444 529.902L272.946 528.582C274.61 530.476 276.257 532.476 277.886 534.596L276.3 535.815ZM266.202 524.34C264.352 522.512 262.483 520.8 260.592 519.186L261.891 517.665C263.817 519.31 265.723 521.055 267.608 522.917L266.202 524.34ZM254.601 514.435C252.528 512.908 250.43 511.474 248.305 510.114L249.384 508.43C251.542 509.811 253.676 511.27 255.787 512.825L254.601 514.435ZM241.743 506.173C239.52 504.917 237.268 503.716 234.988 502.55L235.898 500.77C238.199 501.946 240.475 503.159 242.727 504.432L241.743 506.173ZM228.096 499.154C225.802 498.058 223.481 496.975 221.131 495.886L221.972 494.071C224.324 495.162 226.653 496.248 228.958 497.349L228.096 499.154ZM214.126 492.641C211.829 491.57 209.505 490.476 207.155 489.34L208.025 487.539C210.364 488.669 212.678 489.759 214.971 490.828L214.126 492.641ZM200.222 485.893C197.971 484.738 195.696 483.531 193.398 482.259L194.366 480.509C196.644 481.77 198.9 482.967 201.135 484.114L200.222 485.893ZM186.692 478.388C184.522 477.08 182.332 475.705 180.122 474.25L181.222 472.579C183.408 474.019 185.576 475.38 187.724 476.675L186.692 478.388ZM173.744 469.86C171.698 468.389 169.635 466.843 167.557 465.214L168.79 463.639C170.847 465.251 172.887 466.781 174.911 468.236L173.744 469.86ZM161.559 460.315C160.578 459.479 159.592 458.624 158.604 457.749L159.929 456.251C160.908 457.118 161.884 457.965 162.855 458.791L161.559 460.315ZM158.604 457.749C157.559 456.824 156.513 455.926 155.464 455.055L156.743 453.517C157.807 454.402 158.869 455.313 159.929 456.251L158.604 457.749ZM149.001 450.022C146.751 448.382 144.493 446.852 142.231 445.421L143.3 443.731C145.599 445.185 147.893 446.74 150.179 448.405L149.001 450.022ZM135.147 441.258C132.708 439.93 130.265 438.703 127.822 437.566L128.666 435.753C131.146 436.907 133.626 438.152 136.103 439.501L135.147 441.258ZM120.29 434.329C117.713 433.309 115.137 432.373 112.565 431.507L113.203 429.612C115.806 430.488 118.414 431.436 121.026 432.47L120.29 434.329ZM104.719 429.063C102.059 428.296 99.4064 427.588 96.7634 426.922L97.2518 424.983C99.9131 425.653 102.588 426.367 105.273 427.141L104.719 429.063ZM88.7457 425.009C86.0414 424.394 83.352 423.806 80.679 423.228L81.102 421.273C83.7769 421.852 86.4746 422.441 89.1894 423.059L88.7457 425.009ZM72.5983 421.477C69.8804 420.88 67.1839 420.273 64.5144 419.636L64.9784 417.691C67.6317 418.324 70.3154 418.928 73.0272 419.523L72.5983 421.477ZM56.4747 417.585C53.7851 416.845 51.1271 416.051 48.5058 415.181L49.1357 413.283C51.7188 414.14 54.3431 414.924 57.0051 415.656L56.4747 417.585ZM40.6876 412.294C38.1157 411.236 35.586 410.077 33.1035 408.794L34.0217 407.017C36.4482 408.271 38.9251 409.406 41.4484 410.444L40.6876 412.294ZM25.8752 404.598C23.5673 403.096 21.3092 401.457 19.1054 399.661L20.3691 398.111C22.5157 399.861 24.7159 401.457 26.9659 402.921L25.8752 404.598ZM12.9229 394.043C11.0094 392.109 9.14573 390.028 7.33491 387.784L8.89131 386.528C10.6604 388.72 12.4792 390.751 14.3447 392.636L12.9229 394.043ZM2.41299 381.075C1.64595 379.926 0.890222 378.742 0.146053 377.52L1.85395 376.48C2.584 377.678 3.32489 378.839 4.0763 379.964L2.41299 381.075Z" fill="#5D7AAC"/>
<path fill-rule="evenodd" clip-rule="evenodd" d="M760.913 712.013C692.227 844.045 619.914 885.795 541.131 853.338C462.347 820.881 514.245 748.771 414.009 773.157C313.772 797.542 294.961 625.96 352.305 551.283C409.649 476.606 456.596 545.919 563.117 484.419C669.638 422.919 829.599 579.981 760.913 712.013Z" fill="#F4F5F6"/>
<mask id="mask0" mask-type="alpha" maskUnits="userSpaceOnUse" x="107" y="0" width="1012" height="969">
<path fill-rule="evenodd" clip-rule="evenodd" d="M760.913 712.013C692.227 844.045 619.914 885.795 541.131 853.338C462.347 820.881 514.245 748.771 414.009 773.157C313.772 797.542 175.656 552.677 233 478C253.291 451.576 276.514 343.384 284.5 305.5C299.082 236.322 415.171 305.738 484 266C548.729 228.629 912.177 198.833 976 331.5C1017.21 417.156 787.861 660.212 760.913 712.013Z" fill="white"/>
</mask>
<g mask="url(#mask0)">
<g filter="url(#filter0_d)">
<rect x="383" y="422" width="305" height="642" rx="50" fill="#F6F6F6"/>
<rect x="383.5" y="422.5" width="304" height="641" rx="49.5" stroke="white"/>
</g>
<rect x="396" y="489" width="279" height="508" rx="10" fill="#C1C5F1"/>
<rect x="396" y="489" width="279" height="508" rx="10" fill="#C1C5F1"/>
<mask id="mask1" mask-type="alpha" maskUnits="userSpaceOnUse" x="396" y="489" width="279" height="508">
<rect x="396" y="489" width="279" height="508" rx="10" fill="white"/>
</mask>
<g mask="url(#mask1)">
<path opacity="0.2" fill-rule="evenodd" clip-rule="evenodd" d="M360.5 755.5C416 747 400 500 533 500C666 500 662.5 755.5 737 755.5C811.5 755.5 746 894.5 746 894.5C746 894.5 478 900.5 478 894.5C478 888.5 305 764 360.5 755.5Z" fill="#999FDA"/>
</g>
<path fill-rule="evenodd" clip-rule="evenodd" d="M511 463.5C511 462.119 512.119 461 513.5 461H558.5C559.881 461 561 462.119 561 463.5V463.5C561 464.881 559.881 466 558.5 466H513.5C512.119 466 511 464.881 511 463.5V463.5Z" fill="#D6D6D6"/>
<path d="M562.858 773.22C562.132 766.284 558.881 761.223 553.194 758.177C552.226 757.659 551.189 757.214 550.081 756.844C542.037 754.287 535.369 758.121 532.108 760.636L532.059 760.674C531.871 760.827 531.684 760.981 531.499 761.137C531.315 760.98 531.128 760.826 530.939 760.673L530.891 760.635C527.631 758.121 520.963 754.282 512.885 756.853C511.81 757.211 510.774 757.656 509.806 758.174C504.119 761.22 500.868 766.282 500.142 773.218C499.453 779.812 501.268 786.252 505.692 792.908C512.075 802.515 521.611 809.506 530.097 815.079L531.5 816L532.904 815.079C541.39 809.506 550.926 802.514 557.309 792.908C561.733 786.253 563.548 779.813 562.858 773.22Z" fill="white"/>
<path fill-rule="evenodd" clip-rule="evenodd" d="M548.921 777.184C548.518 773.485 546.712 770.785 543.552 769.161C543.014 768.885 542.438 768.647 541.823 768.45C537.354 767.086 533.649 769.131 531.838 770.473L531.811 770.493C531.706 770.575 531.602 770.657 531.5 770.74C531.397 770.656 531.293 770.574 531.189 770.492L531.162 770.472C529.351 769.131 525.646 767.084 521.158 768.455C520.561 768.646 519.985 768.883 519.448 769.16C516.288 770.784 514.482 773.483 514.079 777.183C513.696 780.7 514.705 784.134 517.162 787.684C520.708 792.808 526.006 796.537 530.721 799.509L531.5 800L532.28 799.509C536.994 796.537 542.292 792.807 545.838 787.684C548.296 784.135 549.304 780.7 548.921 777.184ZM531.947 775L532 775.057L532.051 775.003C532.503 775.538 533 776.322 533 777.194C533 778.258 532.473 779 532 779C531.527 779 531 778.258 531 777.194C531 776.351 531.477 775.561 531.947 775ZM531.5 796C535.732 793.344 540.322 790.062 543.364 785.758C545.427 782.84 546.245 780.193 545.937 777.429C545.644 774.786 544.403 772.949 542.146 771.812C541.753 771.614 541.33 771.444 540.889 771.305C537.798 770.382 535.123 771.755 533.717 772.738C534.604 773.663 535.578 775.079 535.578 776.836C535.578 779.397 533.748 781.48 531.5 781.48C529.252 781.48 527.423 779.397 527.423 776.836C527.423 775.078 528.397 773.663 529.285 772.738C528.207 771.984 526.383 771.003 524.191 771.003C523.522 771.003 522.82 771.094 522.094 771.311C521.67 771.444 521.247 771.614 520.855 771.812C518.597 772.949 517.357 774.786 517.063 777.429C516.755 780.193 517.572 782.84 519.635 785.758C522.678 790.062 527.268 793.344 531.5 796Z" fill="#7D85FB"/>
<rect opacity="0.5" x="467.5" y="561.5" width="131" height="126" fill="white" fill-opacity="0.5" stroke="white"/>
<rect x="457" y="551" width="24" height="3" fill="white"/>
<rect x="457" y="575" width="24" height="3" transform="rotate(-90 457 575)" fill="white"/>
<rect width="24" height="3" transform="matrix(1 0 0 -1 457 697)" fill="white"/>
<rect width="24" height="3" transform="matrix(0 1 1 0 457 673)" fill="white"/>
<rect x="609" y="551.5" width="24" height="3" transform="rotate(90 609 551.5)" fill="white"/>
<rect x="585" y="551" width="24" height="3" fill="white"/>
<rect width="24" height="3" transform="matrix(0 -1 -1 0 609 697.5)" fill="white"/>
<rect width="24" height="3" transform="matrix(1 0 0 -1 585 698)" fill="white"/>
<mask id="mask2" mask-type="alpha" maskUnits="userSpaceOnUse" x="479" y="573" width="108" height="52">
<rect x="479" y="573" width="108" height="52" fill="white"/>
</mask>
<g mask="url(#mask2)">
<path fill-rule="evenodd" clip-rule="evenodd" d="M483 576H514V607H483V576ZM486.1 603.9H510.9V579.1H486.1V603.9Z" fill="black"/>
<rect x="489" y="582" width="18" height="18" fill="black"/>
<path fill-rule="evenodd" clip-rule="evenodd" d="M549 607V576H580V607H549ZM552.1 603.9H576.9V579.1H552.1V603.9Z" fill="black"/>
<rect x="556" y="582" width="18" height="18" fill="black"/>
<path d="M529.857 611.88H511V615H533V602.52H537.714V594.72H523.571V583.8H529.857V588.48H544V576H540.857V585.36H533V576H520.429V597.84H529.857V602.52H520.429V605.64H529.857V611.88Z" fill="black"/>
<path d="M490.885 621.938H506.654V628.188H497.192V631.312H506.654V636H524V632.875H509.808V618.812H501.923V612.562H498.769V618.812H494.038V611H483V614.125H490.885V621.938Z" fill="black"/>
<path d="M545.419 649.857V656.143H539.226V638.857H536.129V632.571H531.484V620H516V629.429H519.097V623.143H528.387V642H536.129V659.286H556.258V664H564V649.857H556.258V656.143H548.516V649.857H545.419Z" fill="black"/>
<path d="M576.909 630.333H555.273V639.833H549.091V630.333H546V643H558.364V633.5H566.091V641.417H569.182V633.5H576.909V649.333H569.182V662H580V658.833H572.273V652.5H580V624H576.909V630.333Z" fill="black"/>
<path d="M552.5 621.8H543.125V609H540V625H565V621.8H555.625V615.4H565V612.2H547.812V615.4H552.5V621.8Z" fill="black"/>
<rect x="570" y="612" width="10" height="10" fill="black"/>
</g>
<mask id="mask3" mask-type="alpha" maskUnits="userSpaceOnUse" x="479" y="626" width="108" height="56">
<rect x="479" y="626" width="108" height="56" fill="white"/>
</mask>
<g mask="url(#mask3)">
<path fill-rule="evenodd" clip-rule="evenodd" d="M514 673H483V642H514V673ZM510.9 645.1H486.1V669.9H510.9V645.1Z" fill="white"/>
<rect x="489" y="649" width="18" height="18" fill="white"/>
<path d="M545.167 662H542V672H580V668.667H545.167V662Z" fill="white"/>
<path d="M529.5 654.889H522V644H519V658H526.5V665.778H519V668.889H526.5V672H537V668.889H529.5V654.889Z" fill="white"/>
<path d="M490.885 621.938H506.654V628.188H497.192V631.312H506.654V636H524V632.875H509.808V618.812H501.923V612.562H498.769V618.812H494.038V611H483V614.125H490.885V621.938Z" fill="white"/>
<path d="M545.419 649.857V656.143H539.226V638.857H536.129V632.571H531.484V620H516V629.429H519.097V623.143H528.387V642H536.129V659.286H556.258V664H564V649.857H556.258V656.143H548.516V649.857H545.419Z" fill="white"/>
<path d="M576.909 630.333H555.273V639.833H549.091V630.333H546V643H558.364V633.5H566.091V641.417H569.182V633.5H576.909V649.333H569.182V662H580V658.833H572.273V652.5H580V624H576.909V630.333Z" fill="white"/>
<rect x="483" y="629" width="10" height="10" fill="white"/>
</g>
<g filter="url(#filter1_d)">
<rect x="445" y="625" width="173" height="2" fill="#00CFFF"/>
</g>
</g>
<defs>
<filter id="filter0_d" x="323" y="364" width="425" height="762" filterUnits="userSpaceOnUse" color-interpolation-filters="sRGB">
<feFlood flood-opacity="0" result="BackgroundImageFix"/>
<feColorMatrix in="SourceAlpha" type="matrix" values="0 0 0 0 0 0 0 0 0 0 0 0 0 0 0 0 0 0 127 0"/>
<feOffset dy="2"/>
<feGaussianBlur stdDeviation="30"/>
<feColorMatrix type="matrix" values="0 0 0 0 0 0 0 0 0 0 0 0 0 0 0 0 0 0 0.1 0"/>
<feBlend mode="normal" in2="BackgroundImageFix" result="effect1_dropShadow"/>
<feBlend mode="normal" in="SourceGraphic" in2="effect1_dropShadow" result="shape"/>
</filter>
<filter id="filter1_d" x="435" y="615" width="193" height="22" filterUnits="userSpaceOnUse" color-interpolation-filters="sRGB">
<feFlood flood-opacity="0" result="BackgroundImageFix"/>
<feColorMatrix in="SourceAlpha" type="matrix" values="0 0 0 0 0 0 0 0 0 0 0 0 0 0 0 0 0 0 127 0"/>
<feOffset/>
<feGaussianBlur stdDeviation="5"/>
<feColorMatrix type="matrix" values="0 0 0 0 0.0145334 0 0 0 0 0.904847 0 0 0 0 0.98797 0 0 0 1 0"/>
<feBlend mode="normal" in2="BackgroundImageFix" result="effect1_dropShadow"/>
<feBlend mode="normal" in="SourceGraphic" in2="effect1_dropShadow" result="shape"/>
</filter>
</defs>
</svg>
