<svg width="155" height="224" viewBox="0 0 155 224" fill="none" xmlns="http://www.w3.org/2000/svg">
<path opacity="0.1" fill-rule="evenodd" clip-rule="evenodd" d="M111.323 42.4106L117.898 51.5271C134.054 74.2893 152.175 103.533 154.787 138.798C156.421 160.965 148.585 183.015 133.297 199.276C118.756 214.727 99.0807 223.512 77.863 223.99L77.5 224L77.137 223.99C55.9193 223.512 36.2344 214.737 21.7027 199.276C6.41464 183.015 -1.42098 160.975 0.2127 138.798C2.68339 105.114 19.3228 76.9344 34.8831 54.6408L41.7203 45.0557C42.5201 43.9533 43.3198 42.8571 44.1039 41.7823C44.2987 41.5153 44.4925 41.2496 44.6852 40.9855C45.0259 40.5174 45.3667 40.05 45.7066 39.5837C46.6141 38.3389 47.5159 37.102 48.3962 35.8806C54.1242 27.9549 60.185 20.2634 66.5079 12.7769L77.2983 0L94.1293 20.2146C99.7262 26.9397 105.081 33.8406 110.224 40.8976C110.239 40.9172 110.252 40.9342 110.264 40.9513C110.277 40.9684 110.29 40.9855 110.305 41.005C110.419 41.1619 110.534 41.3223 110.649 41.4837C110.872 41.7942 111.098 42.1087 111.323 42.4106ZM78 188C89.3053 187.648 99.8343 182.801 107.676 174.339C116.364 164.958 120.813 152.206 119.877 139.346C117.698 109.298 99.3168 83.7354 84.5483 63.205L84.1103 62.5946C81.9874 59.6367 79.9371 56.7799 78 54C75.93 56.9706 73.7307 60.0292 71.4517 63.1952L71.449 63.199C56.6809 83.7386 38.302 109.3 36.1227 139.346C35.1872 152.206 39.6357 164.968 48.3236 174.339C56.1657 182.811 66.6947 187.658 78 188Z" fill="#7D85FB"/>
</svg>
