<svg width="1288" height="361" viewBox="0 0 1288 361" fill="none" xmlns="http://www.w3.org/2000/svg">
<path fill-rule="evenodd" clip-rule="evenodd" d="M250.801 6.05865L251.734 7.36102C254.027 10.6128 256.599 14.7904 256.97 19.8283C257.202 22.995 256.09 26.1449 253.92 28.468C251.856 30.6753 249.063 31.9303 246.052 31.9986L246 32L245.948 31.9986C242.937 31.9303 240.143 30.6767 238.08 28.468C235.91 26.1449 234.798 22.9964 235.03 19.8283C235.381 15.0163 237.743 10.9906 239.951 7.80583L240.922 6.43653C241.035 6.27917 241.148 6.12269 241.26 5.96926C241.287 5.93099 241.315 5.89292 241.342 5.85507C241.391 5.78818 241.439 5.72139 241.487 5.65476C241.616 5.47694 241.744 5.30027 241.869 5.1258C242.682 3.99355 243.542 2.89477 244.44 1.82526L245.971 0L248.36 2.88779C249.155 3.84853 249.915 4.83437 250.645 5.84252C250.647 5.84524 250.649 5.84763 250.65 5.85C250.652 5.85251 250.654 5.855 250.656 5.85786C250.672 5.88028 250.689 5.90319 250.705 5.92626C250.737 5.97061 250.769 6.01554 250.801 6.05865ZM246 27C247.615 26.9501 249.119 26.2629 250.239 25.063C251.481 23.7329 252.116 21.9247 251.982 20.1014C251.671 15.8408 249.045 12.2162 246.935 9.30519C246.915 9.27627 246.894 9.24743 246.873 9.21865C246.57 8.79924 246.277 8.39416 246 8C245.704 8.42121 245.39 8.85488 245.065 9.3038L245.064 9.30433C242.954 12.2167 240.329 15.8411 240.018 20.1014C239.884 21.9247 240.519 23.7343 241.761 25.063C242.881 26.2643 244.385 26.9515 246 27Z" fill="#E8F7FF"/>
<path fill-rule="evenodd" clip-rule="evenodd" d="M37.8007 250.059L38.734 251.361C41.027 254.613 43.5991 258.79 43.9698 263.828C44.2017 266.995 43.0895 270.145 40.9196 272.468C38.8556 274.675 36.0631 275.93 33.0515 275.999L33 276L32.9485 275.999C29.9369 275.93 27.1429 274.677 25.0804 272.468C22.9105 270.145 21.7983 266.996 22.0302 263.828C22.3809 259.016 24.7426 254.991 26.9511 251.806L27.9216 250.437C28.035 250.279 28.1484 250.123 28.2597 249.969C28.2874 249.931 28.315 249.893 28.3424 249.855C28.3908 249.788 28.4392 249.721 28.4874 249.655C28.6162 249.477 28.7442 249.3 28.8691 249.126C29.6821 247.994 30.5424 246.895 31.4398 245.825L32.9714 244L35.3603 246.888C36.1547 247.849 36.9147 248.834 37.6447 249.843C37.6468 249.845 37.6486 249.848 37.6503 249.85C37.6521 249.853 37.654 249.855 37.6562 249.858C37.6723 249.88 37.6886 249.903 37.7051 249.926C37.7367 249.971 37.7687 250.016 37.8007 250.059ZM33 271C34.615 270.95 36.1192 270.263 37.2395 269.063C38.4806 267.733 39.1161 265.925 38.9825 264.101C38.6711 259.841 36.0453 256.216 33.9355 253.305C33.9146 253.276 33.8937 253.247 33.8729 253.219C33.5696 252.799 33.2767 252.394 33 252C32.7043 252.421 32.3901 252.855 32.0645 253.304L32.0641 253.304C29.9544 256.217 27.3289 259.841 27.0175 264.101C26.8839 265.925 27.5194 267.734 28.7605 269.063C29.8808 270.264 31.385 270.952 33 271Z" fill="#E8F7FF"/>
<path fill-rule="evenodd" clip-rule="evenodd" d="M1264.8 6.05865L1265.73 7.36102C1268.03 10.6128 1270.6 14.7904 1270.97 19.8283C1271.2 22.995 1270.09 26.1449 1267.92 28.468C1265.86 30.6753 1263.06 31.9303 1260.05 31.9986L1260 32L1259.95 31.9986C1256.94 31.9303 1254.14 30.6767 1252.08 28.468C1249.91 26.1449 1248.8 22.9964 1249.03 19.8283C1249.38 15.0163 1251.74 10.9906 1253.95 7.80583L1254.92 6.43653C1255.04 6.27917 1255.15 6.12269 1255.26 5.96926C1255.29 5.93099 1255.31 5.89292 1255.34 5.85507C1255.39 5.78818 1255.44 5.72139 1255.49 5.65476C1255.62 5.47694 1255.74 5.30027 1255.87 5.1258C1256.68 3.99355 1257.54 2.89477 1258.44 1.82526L1259.97 0L1262.36 2.88779C1263.15 3.84853 1263.91 4.83437 1264.64 5.84252C1264.65 5.84524 1264.65 5.84763 1264.65 5.85C1264.65 5.85251 1264.65 5.855 1264.66 5.85786C1264.67 5.88028 1264.69 5.90319 1264.71 5.92626C1264.74 5.97061 1264.77 6.01554 1264.8 6.05865ZM1260 27C1261.62 26.9501 1263.12 26.2629 1264.24 25.063C1265.48 23.7329 1266.12 21.9247 1265.98 20.1014C1265.67 15.8408 1263.05 12.2162 1260.94 9.30519C1260.91 9.27627 1260.89 9.24743 1260.87 9.21865C1260.57 8.79924 1260.28 8.39416 1260 8C1259.7 8.42121 1259.39 8.85488 1259.06 9.3038L1259.06 9.30433C1256.95 12.2167 1254.33 15.8411 1254.02 20.1014C1253.88 21.9247 1254.52 23.7343 1255.76 25.063C1256.88 26.2643 1258.38 26.9515 1260 27Z" fill="#E8F7FF"/>
<path fill-rule="evenodd" clip-rule="evenodd" d="M15.8007 50.0587L16.734 51.361C19.027 54.6128 21.5991 58.7904 21.9698 63.8283C22.2017 66.995 21.0895 70.1449 18.9196 72.468C16.8556 74.6753 14.0631 75.9303 11.0515 75.9986L11 76L10.9485 75.9986C7.93693 75.9303 5.14295 74.6767 3.08038 72.468C0.910465 70.1449 -0.201688 66.9964 0.0301897 63.8283C0.380869 59.0163 2.74258 54.9906 4.95115 51.8058L5.9216 50.4365C6.03502 50.2792 6.14844 50.1227 6.25965 49.9693C6.28739 49.931 6.31498 49.8929 6.34241 49.8551C6.39079 49.7882 6.43917 49.7214 6.48743 49.6548C6.61623 49.4769 6.7442 49.3003 6.86914 49.1258C7.68215 47.9936 8.54239 46.8948 9.43984 45.8253L10.9714 44L13.3603 46.8878C14.1547 47.8485 14.9147 48.8344 15.6447 49.8425C15.6468 49.8452 15.6486 49.8476 15.6503 49.85C15.6521 49.8525 15.654 49.855 15.6562 49.8579C15.6723 49.8803 15.6886 49.9032 15.7051 49.9263C15.7367 49.9706 15.7687 50.0155 15.8007 50.0587ZM11 71C12.615 70.9501 14.1192 70.2629 15.2395 69.063C16.4806 67.7329 17.1161 65.9247 16.9825 64.1014C16.6711 59.8408 14.0453 56.2162 11.9355 53.3052C11.9146 53.2763 11.8937 53.2474 11.8729 53.2186C11.5696 52.7992 11.2767 52.3942 11 52C10.7043 52.4212 10.3901 52.8549 10.0645 53.3038L10.0641 53.3043C7.95442 56.2167 5.32886 59.8411 5.01752 64.1014C4.88388 65.9247 5.51938 67.7343 6.76052 69.063C7.88081 70.2643 9.38496 70.9515 11 71Z" fill="#FFEAF0"/>
<path fill-rule="evenodd" clip-rule="evenodd" d="M1281.8 335.059L1282.73 336.361C1285.03 339.613 1287.6 343.79 1287.97 348.828C1288.2 351.995 1287.09 355.145 1284.92 357.468C1282.86 359.675 1280.06 360.93 1277.05 360.999L1277 361L1276.95 360.999C1273.94 360.93 1271.14 359.677 1269.08 357.468C1266.91 355.145 1265.8 351.996 1266.03 348.828C1266.38 344.016 1268.74 339.991 1270.95 336.806L1271.92 335.437C1272.04 335.279 1272.15 335.123 1272.26 334.969C1272.29 334.931 1272.31 334.893 1272.34 334.855C1272.39 334.788 1272.44 334.721 1272.49 334.655C1272.62 334.477 1272.74 334.3 1272.87 334.126C1273.68 332.994 1274.54 331.895 1275.44 330.825L1276.97 329L1279.36 331.888C1280.15 332.849 1280.91 333.834 1281.64 334.843C1281.65 334.845 1281.65 334.848 1281.65 334.85C1281.65 334.853 1281.65 334.855 1281.66 334.858C1281.67 334.88 1281.69 334.903 1281.71 334.926C1281.74 334.971 1281.77 335.016 1281.8 335.059ZM1277 356C1278.62 355.95 1280.12 355.263 1281.24 354.063C1282.48 352.733 1283.12 350.925 1282.98 349.101C1282.67 344.841 1280.05 341.216 1277.94 338.305C1277.91 338.276 1277.89 338.247 1277.87 338.219C1277.57 337.799 1277.28 337.394 1277 337C1276.7 337.421 1276.39 337.855 1276.06 338.304L1276.06 338.304C1273.95 341.217 1271.33 344.841 1271.02 349.101C1270.88 350.925 1271.52 352.734 1272.76 354.063C1273.88 355.264 1275.38 355.952 1277 356Z" fill="#FFEAF0"/>
<path fill-rule="evenodd" clip-rule="evenodd" d="M759.801 222.059L760.734 223.361C763.027 226.613 765.599 230.79 765.97 235.828C766.202 238.995 765.09 242.145 762.92 244.468C760.856 246.675 758.063 247.93 755.052 247.999L755 248L754.948 247.999C751.937 247.93 749.143 246.677 747.08 244.468C744.91 242.145 743.798 238.996 744.03 235.828C744.381 231.016 746.743 226.991 748.951 223.806L749.922 222.437C750.035 222.279 750.148 222.123 750.26 221.969C750.287 221.931 750.315 221.893 750.342 221.855C750.391 221.788 750.439 221.721 750.487 221.655C750.616 221.477 750.744 221.3 750.869 221.126C751.682 219.994 752.542 218.895 753.44 217.825L754.971 216L757.36 218.888C758.155 219.849 758.915 220.834 759.645 221.843C759.647 221.845 759.649 221.848 759.65 221.85C759.652 221.853 759.654 221.855 759.656 221.858C759.672 221.88 759.689 221.903 759.705 221.926C759.737 221.971 759.769 222.016 759.801 222.059ZM755 243C756.615 242.95 758.119 242.263 759.239 241.063C760.481 239.733 761.116 237.925 760.982 236.101C760.671 231.841 758.045 228.216 755.935 225.305C755.915 225.276 755.894 225.247 755.873 225.219C755.57 224.799 755.277 224.394 755 224C754.704 224.421 754.39 224.855 754.065 225.304L754.064 225.304C751.954 228.217 749.329 231.841 749.018 236.101C748.884 237.925 749.519 239.734 750.761 241.063C751.881 242.264 753.385 242.952 755 243Z" fill="#FFEEEA"/>
<path fill-rule="evenodd" clip-rule="evenodd" d="M285.801 282.059L286.734 283.361C289.027 286.613 291.599 290.79 291.97 295.828C292.202 298.995 291.09 302.145 288.92 304.468C286.856 306.675 284.063 307.93 281.052 307.999L281 308L280.948 307.999C277.937 307.93 275.143 306.677 273.08 304.468C270.91 302.145 269.798 298.996 270.03 295.828C270.381 291.016 272.743 286.991 274.951 283.806L275.922 282.437C276.035 282.279 276.148 282.123 276.26 281.969C276.287 281.931 276.315 281.893 276.342 281.855C276.391 281.788 276.439 281.721 276.487 281.655C276.616 281.477 276.744 281.3 276.869 281.126C277.682 279.994 278.542 278.895 279.44 277.825L280.971 276L283.36 278.888C284.155 279.849 284.915 280.834 285.645 281.843C285.647 281.845 285.649 281.848 285.65 281.85C285.652 281.853 285.654 281.855 285.656 281.858C285.672 281.88 285.689 281.903 285.705 281.926C285.737 281.971 285.769 282.016 285.801 282.059ZM281 303C282.615 302.95 284.119 302.263 285.239 301.063C286.481 299.733 287.116 297.925 286.982 296.101C286.671 291.841 284.045 288.216 281.935 285.305C281.915 285.276 281.894 285.247 281.873 285.219C281.57 284.799 281.277 284.394 281 284C280.704 284.421 280.39 284.855 280.065 285.304L280.064 285.304C277.954 288.217 275.329 291.841 275.018 296.101C274.884 297.925 275.519 299.734 276.761 301.063C277.881 302.264 279.385 302.952 281 303Z" fill="#E9EBFF"/>
<path fill-rule="evenodd" clip-rule="evenodd" d="M889.801 28.0587L890.734 29.361C893.027 32.6128 895.599 36.7904 895.97 41.8283C896.202 44.995 895.09 48.1449 892.92 50.468C890.856 52.6753 888.063 53.9303 885.052 53.9986L885 54L884.948 53.9986C881.937 53.9303 879.143 52.6767 877.08 50.468C874.91 48.1449 873.798 44.9964 874.03 41.8283C874.381 37.0163 876.743 32.9906 878.951 29.8058L879.922 28.4365C880.035 28.2792 880.148 28.1227 880.26 27.9693C880.287 27.931 880.315 27.8929 880.342 27.8551C880.391 27.7882 880.439 27.7214 880.487 27.6548C880.616 27.4769 880.744 27.3003 880.869 27.1258C881.682 25.9936 882.542 24.8948 883.44 23.8253L884.971 22L887.36 24.8878C888.155 25.8485 888.915 26.8344 889.645 27.8425C889.647 27.8452 889.649 27.8476 889.65 27.85C889.652 27.8525 889.654 27.855 889.656 27.8579C889.672 27.8803 889.689 27.9032 889.705 27.9263C889.737 27.9706 889.769 28.0155 889.801 28.0587ZM885 49C886.615 48.9501 888.119 48.2629 889.239 47.063C890.481 45.7329 891.116 43.9247 890.982 42.1014C890.671 37.8408 888.045 34.2162 885.935 31.3052C885.915 31.2763 885.894 31.2474 885.873 31.2186C885.57 30.7992 885.277 30.3942 885 30C884.704 30.4212 884.39 30.8549 884.065 31.3038L884.064 31.3043C881.954 34.2167 879.329 37.8411 879.018 42.1014C878.884 43.9247 879.519 45.7343 880.761 47.063C881.881 48.2643 883.385 48.9515 885 49Z" fill="#E9EBFF"/>
<path fill-rule="evenodd" clip-rule="evenodd" d="M1184.8 182.059L1185.73 183.361C1188.03 186.613 1190.6 190.79 1190.97 195.828C1191.2 198.995 1190.09 202.145 1187.92 204.468C1185.86 206.675 1183.06 207.93 1180.05 207.999L1180 208L1179.95 207.999C1176.94 207.93 1174.14 206.677 1172.08 204.468C1169.91 202.145 1168.8 198.996 1169.03 195.828C1169.38 191.016 1171.74 186.991 1173.95 183.806L1174.92 182.437C1175.04 182.279 1175.15 182.123 1175.26 181.969C1175.29 181.931 1175.31 181.893 1175.34 181.855C1175.39 181.788 1175.44 181.721 1175.49 181.655C1175.62 181.477 1175.74 181.3 1175.87 181.126C1176.68 179.994 1177.54 178.895 1178.44 177.825L1179.97 176L1182.36 178.888C1183.15 179.849 1183.91 180.834 1184.64 181.843C1184.65 181.845 1184.65 181.848 1184.65 181.85C1184.65 181.853 1184.65 181.855 1184.66 181.858C1184.67 181.88 1184.69 181.903 1184.71 181.926C1184.74 181.971 1184.77 182.016 1184.8 182.059ZM1180 203C1181.62 202.95 1183.12 202.263 1184.24 201.063C1185.48 199.733 1186.12 197.925 1185.98 196.101C1185.67 191.841 1183.05 188.216 1180.94 185.305C1180.91 185.276 1180.89 185.247 1180.87 185.219C1180.57 184.799 1180.28 184.394 1180 184C1179.7 184.421 1179.39 184.855 1179.06 185.304L1179.06 185.304C1176.95 188.217 1174.33 191.841 1174.02 196.101C1173.88 197.925 1174.52 199.734 1175.76 201.063C1176.88 202.264 1178.38 202.952 1180 203Z" fill="#E9EBFF"/>
</svg>
