<svg width="213" height="297" viewBox="0 0 213 297" fill="none" xmlns="http://www.w3.org/2000/svg">
<g opacity="0.3" filter="url(#filter0_d)">
<path d="M135.952 107.265L131.158 100.672C130.908 100.34 130.658 99.9872 130.416 99.6554C130.394 99.6272 130.379 99.606 130.357 99.5778C126.607 94.474 122.704 89.4832 118.623 84.6195L106.353 70L98.4864 79.2404C93.8768 84.6548 89.4583 90.2174 85.2824 95.9494C84.4002 97.1635 83.4886 98.3989 82.5769 99.6413C81.8711 100.601 81.1433 101.59 80.4155 102.585L75.4309 109.517C64.0869 125.64 51.9563 146.02 50.1551 170.381C48.9641 186.419 54.6765 202.359 65.822 214.119C76.416 225.301 90.7669 231.647 106.235 231.993L106.5 232L106.765 231.993C122.233 231.647 136.577 225.294 147.178 214.119C158.324 202.359 164.036 186.412 162.845 170.381C160.941 144.876 147.729 123.727 135.952 107.265Z" fill="#95D089"/>
</g>
<path d="M148.462 53.3674L141.633 43.9252C141.276 43.4501 140.92 42.9446 140.575 42.4695C140.543 42.429 140.522 42.3987 140.491 42.3583C135.149 35.0492 129.587 27.9019 123.773 20.9365L106.291 0L95.0824 13.2332C88.5147 20.9871 82.2194 28.9532 76.2697 37.1621C75.0127 38.9009 73.7138 40.67 72.4149 42.4493C71.4093 43.8241 70.3723 45.2394 69.3353 46.6649L62.2334 56.5923C46.0707 79.6821 28.7873 108.868 26.2209 143.755C24.524 166.724 32.663 189.551 48.5428 206.393C63.637 222.406 84.0839 231.495 106.123 231.99L106.5 232L106.877 231.99C128.916 231.495 149.353 222.396 164.457 206.393C180.337 189.551 188.476 166.714 186.779 143.755C184.066 107.23 165.243 76.9424 148.462 53.3674Z" fill="#95D089"/>
<path d="M87.9422 101.1C87.9422 96.6 88.0322 92.46 88.2122 90.39C88.0322 89.67 87.4022 89.4 86.9522 89.4C86.3222 89.4 82.9022 91.11 78.9422 92.28C75.3422 93.27 71.1122 94.26 67.4222 94.8C66.7022 95.34 66.7922 97.5 67.6022 97.95L71.7422 98.49C75.7022 99.03 76.0622 100.38 76.0622 106.32V135.39C76.0622 142.59 75.5222 143.49 71.1122 143.85L67.4222 144.12C66.6122 144.66 66.7022 147 67.6022 147.27C70.8422 147.09 76.2422 147 82.1822 147C87.7622 147 93.1622 147.09 96.4022 147.27C97.3022 147 97.3922 144.66 96.5822 144.12L92.8922 143.85C88.4822 143.49 87.9422 142.59 87.9422 135.39V101.1ZM108.15 111.81C107.52 112.35 106.71 115.32 107.34 115.86H111.03C110.85 117.3 110.85 120.09 110.85 121.26H106.98C106.35 121.8 105.54 124.77 106.17 125.31H111.12C112.56 139.35 120.93 148.26 134.34 148.26C138.66 148.26 142.89 147 144.6 146.37C145.41 146.1 146.31 145.83 147.21 145.65C148.38 143.13 149.55 138.9 150.36 134.49C149.91 133.68 148.29 133.41 147.66 134.13C146.13 138.27 142.71 144.12 136.41 144.12C128.94 144.12 124.53 137.91 123.99 125.31H143.07C144.06 124.77 144.51 121.8 143.88 121.26H123.63C123.54 120.27 123.45 117.39 123.63 115.86H145.59C146.67 115.32 146.67 112.8 146.49 111.81H123.9C124.98 99.3 129.12 93.63 135.24 93.63C142.26 93.63 144.42 98.49 146.31 103.98C146.85 104.61 148.65 104.52 149.19 103.35C148.38 99.12 148.29 94.08 148.29 91.92L146.13 91.38C143.88 90.84 140.55 89.49 135.69 89.49C122.37 89.49 113.73 99.21 111.66 111.81H108.15Z" fill="white"/>
<path d="M94.0049 83.6968H99.7324V85H92.4028V72.9141H94.0049V83.6968ZM108.382 79.4136H103.144V83.6968H109.229V85H101.55V72.9141H109.146V74.2256H103.144V78.1104H108.382V79.4136ZM120.501 85H118.899L112.814 75.6865V85H111.212V72.9141H112.814L118.916 82.269V72.9141H120.501V85Z" fill="white"/>
<path d="M80.1406 190.604L80.1748 191.424C80.7171 190.786 81.4486 190.467 82.3691 190.467C83.4036 190.467 84.1077 190.863 84.4814 191.656C84.7275 191.301 85.0465 191.014 85.4385 190.795C85.835 190.576 86.3021 190.467 86.8398 190.467C88.4622 190.467 89.2871 191.326 89.3145 193.044V198H88.0498V193.119C88.0498 192.59 87.929 192.196 87.6875 191.937C87.446 191.672 87.0404 191.54 86.4707 191.54C86.0013 191.54 85.6117 191.681 85.3018 191.964C84.9919 192.242 84.8118 192.618 84.7617 193.092V198H83.4902V193.153C83.4902 192.078 82.9639 191.54 81.9111 191.54C81.0817 191.54 80.5143 191.893 80.209 192.6V198H78.9443V190.604H80.1406ZM94.2979 198.137C93.2952 198.137 92.4795 197.809 91.8506 197.152C91.2217 196.492 90.9072 195.61 90.9072 194.507V194.274C90.9072 193.541 91.0462 192.887 91.3242 192.312C91.6068 191.734 91.9987 191.283 92.5 190.959C93.0059 190.631 93.5527 190.467 94.1406 190.467C95.1022 190.467 95.8496 190.784 96.3828 191.417C96.916 192.05 97.1826 192.957 97.1826 194.138V194.664H92.1719C92.1901 195.393 92.402 195.983 92.8076 196.435C93.2178 196.881 93.7373 197.104 94.3662 197.104C94.8128 197.104 95.1911 197.013 95.501 196.831C95.8109 196.649 96.082 196.407 96.3145 196.106L97.0869 196.708C96.4671 197.66 95.5374 198.137 94.2979 198.137ZM94.1406 191.506C93.6302 191.506 93.2018 191.693 92.8555 192.066C92.5091 192.436 92.2949 192.955 92.2129 193.625H95.918V193.529C95.8815 192.887 95.7083 192.39 95.3984 192.039C95.0885 191.684 94.6693 191.506 94.1406 191.506ZM102.959 196.038C102.959 195.696 102.829 195.432 102.569 195.245C102.314 195.054 101.865 194.89 101.223 194.753C100.585 194.616 100.076 194.452 99.6982 194.261C99.3245 194.069 99.0465 193.841 98.8643 193.577C98.6865 193.313 98.5977 192.998 98.5977 192.634C98.5977 192.028 98.8529 191.515 99.3633 191.096C99.8783 190.676 100.535 190.467 101.332 190.467C102.171 190.467 102.85 190.683 103.369 191.116C103.893 191.549 104.155 192.103 104.155 192.777H102.884C102.884 192.431 102.736 192.132 102.439 191.882C102.148 191.631 101.779 191.506 101.332 191.506C100.872 191.506 100.512 191.606 100.252 191.807C99.9922 192.007 99.8623 192.269 99.8623 192.593C99.8623 192.898 99.9831 193.128 100.225 193.283C100.466 193.438 100.901 193.586 101.53 193.728C102.164 193.869 102.676 194.037 103.068 194.233C103.46 194.429 103.75 194.666 103.937 194.944C104.128 195.218 104.224 195.553 104.224 195.949C104.224 196.61 103.959 197.141 103.431 197.542C102.902 197.938 102.216 198.137 101.373 198.137C100.781 198.137 100.257 198.032 99.8008 197.822C99.3451 197.613 98.9873 197.321 98.7275 196.947C98.4723 196.569 98.3447 196.161 98.3447 195.724H99.6094C99.6322 196.147 99.8008 196.485 100.115 196.735C100.434 196.981 100.854 197.104 101.373 197.104C101.852 197.104 102.234 197.009 102.521 196.817C102.813 196.621 102.959 196.362 102.959 196.038ZM110.438 198C110.365 197.854 110.305 197.594 110.26 197.221C109.672 197.831 108.97 198.137 108.154 198.137C107.425 198.137 106.826 197.932 106.356 197.521C105.892 197.107 105.659 196.583 105.659 195.949C105.659 195.179 105.951 194.582 106.534 194.158C107.122 193.73 107.947 193.516 109.009 193.516H110.239V192.935C110.239 192.493 110.107 192.142 109.843 191.882C109.578 191.618 109.189 191.485 108.674 191.485C108.223 191.485 107.844 191.599 107.539 191.827C107.234 192.055 107.081 192.331 107.081 192.654H105.81C105.81 192.285 105.939 191.93 106.199 191.588C106.464 191.242 106.819 190.968 107.266 190.768C107.717 190.567 108.211 190.467 108.749 190.467C109.601 190.467 110.269 190.681 110.752 191.109C111.235 191.533 111.486 192.119 111.504 192.866V196.271C111.504 196.95 111.59 197.49 111.764 197.891V198H110.438ZM108.339 197.036C108.735 197.036 109.111 196.934 109.467 196.729C109.822 196.523 110.08 196.257 110.239 195.929V194.411H109.248C107.699 194.411 106.924 194.865 106.924 195.771C106.924 196.168 107.056 196.478 107.32 196.701C107.585 196.924 107.924 197.036 108.339 197.036ZM116.453 197.104C116.904 197.104 117.299 196.968 117.636 196.694C117.973 196.421 118.16 196.079 118.196 195.669H119.393C119.37 196.093 119.224 196.496 118.955 196.879C118.686 197.262 118.326 197.567 117.875 197.795C117.428 198.023 116.954 198.137 116.453 198.137C115.446 198.137 114.644 197.802 114.047 197.132C113.454 196.457 113.158 195.537 113.158 194.37V194.158C113.158 193.438 113.29 192.798 113.555 192.237C113.819 191.677 114.197 191.242 114.689 190.932C115.186 190.622 115.772 190.467 116.446 190.467C117.276 190.467 117.964 190.715 118.511 191.212C119.062 191.709 119.356 192.354 119.393 193.146H118.196C118.16 192.668 117.978 192.276 117.649 191.971C117.326 191.661 116.925 191.506 116.446 191.506C115.804 191.506 115.305 191.738 114.949 192.203C114.598 192.663 114.423 193.331 114.423 194.206V194.445C114.423 195.298 114.598 195.954 114.949 196.414C115.3 196.874 115.801 197.104 116.453 197.104ZM116.159 188.662L117.185 187.5H118.278V187.568L116.542 189.441H115.77L114.054 187.568V187.5H115.127L116.159 188.662ZM122.011 190.604L122.052 191.533C122.617 190.822 123.355 190.467 124.267 190.467C125.83 190.467 126.618 191.349 126.632 193.112V198H125.367V193.105C125.363 192.572 125.24 192.178 124.998 191.923C124.761 191.668 124.39 191.54 123.884 191.54C123.474 191.54 123.114 191.649 122.804 191.868C122.494 192.087 122.252 192.374 122.079 192.729V198H120.814V190.604H122.011ZM131.608 198.137C130.606 198.137 129.79 197.809 129.161 197.152C128.532 196.492 128.218 195.61 128.218 194.507V194.274C128.218 193.541 128.357 192.887 128.635 192.312C128.917 191.734 129.309 191.283 129.811 190.959C130.316 190.631 130.863 190.467 131.451 190.467C132.413 190.467 133.16 190.784 133.693 191.417C134.227 192.05 134.493 192.957 134.493 194.138V194.664H129.482C129.501 195.393 129.713 195.983 130.118 196.435C130.528 196.881 131.048 197.104 131.677 197.104C132.123 197.104 132.502 197.013 132.812 196.831C133.121 196.649 133.393 196.407 133.625 196.106L134.397 196.708C133.778 197.66 132.848 198.137 131.608 198.137ZM131.451 191.506C130.941 191.506 130.512 191.693 130.166 192.066C129.82 192.436 129.605 192.955 129.523 193.625H133.229V193.529C133.192 192.887 133.019 192.39 132.709 192.039C132.399 191.684 131.98 191.506 131.451 191.506Z" fill="white"/>
<defs>
<filter id="filter0_d" x="0" y="35" width="213" height="262" filterUnits="userSpaceOnUse" color-interpolation-filters="sRGB">
<feFlood flood-opacity="0" result="BackgroundImageFix"/>
<feColorMatrix in="SourceAlpha" type="matrix" values="0 0 0 0 0 0 0 0 0 0 0 0 0 0 0 0 0 0 127 0"/>
<feOffset dy="15"/>
<feGaussianBlur stdDeviation="25"/>
<feColorMatrix type="matrix" values="0 0 0 0 0.140578 0 0 0 0 0.244084 0 0 0 0 0.119526 0 0 0 1 0"/>
<feBlend mode="normal" in2="BackgroundImageFix" result="effect1_dropShadow"/>
<feBlend mode="normal" in="SourceGraphic" in2="effect1_dropShadow" result="shape"/>
</filter>
</defs>
</svg>
