<svg width="49" height="44" viewBox="0 0 49 44" fill="none" xmlns="http://www.w3.org/2000/svg">
<path fill-rule="evenodd" clip-rule="evenodd" d="M48.8894 12.6283C48.3248 7.54149 45.7961 3.82985 41.3731 1.59624C40.6201 1.21632 39.8138 0.889951 38.9517 0.618824C32.6954 -1.25612 27.5089 1.55544 24.9732 3.39979L24.9348 3.42784C24.7882 3.54003 24.6434 3.65307 24.4994 3.76696C24.3563 3.65222 24.2106 3.53918 24.064 3.42699L24.0265 3.39894C21.4908 1.55544 16.3043 -1.25952 10.0218 0.625623C9.18588 0.888251 8.37963 1.21462 7.62661 1.59454C3.20357 3.82815 0.674875 7.53979 0.110325 12.6266C-0.42543 17.4618 0.986381 22.1849 4.42691 27.066C9.39181 34.1111 16.8086 39.2379 23.4087 43.3243L24.5003 44L25.5919 43.3243C32.1919 39.2379 39.6088 34.1102 44.5737 27.066C48.0142 22.1857 49.426 17.4627 48.8894 12.6283ZM24.4203 9L24.5 9.08598L24.5758 9.00443C25.2539 9.80662 26 10.9829 26 12.2903C26 13.8867 25.2094 15 24.5 15C23.7906 15 23 13.8867 23 12.2903C23 11.0272 23.7156 9.84119 24.4203 9ZM24.4997 39C30.483 35.2811 36.9723 30.6865 41.2737 24.6606C44.19 20.5754 45.3457 16.8708 44.9115 13.0012C44.4965 9.30076 42.7428 6.72858 39.5507 5.13728C38.9956 4.86028 38.3976 4.62116 37.7734 4.42751C33.4046 3.1351 29.6224 5.05645 27.6341 6.4339C28.8887 7.72883 30.265 9.70996 30.265 12.171C30.265 15.7561 27.6787 18.6726 24.5006 18.6726C21.3225 18.6726 18.7362 15.7561 18.7362 12.171C18.7362 9.70911 20.1134 7.72883 21.368 6.4339C19.8437 5.37808 17.2653 4.004 14.166 4.004C13.2205 4.004 12.2276 4.13198 11.2015 4.43593C10.6027 4.622 10.0047 4.86028 9.44961 5.13728C6.25836 6.72858 4.5047 9.30076 4.08884 13.0012C3.6537 16.8708 4.80938 20.5754 7.72573 24.6606C12.0271 30.6873 18.5164 35.2811 24.4997 39Z" fill="#FF6B6F"/>
</svg>
