<svg width="30" height="44" viewBox="0 0 30 44" fill="none" xmlns="http://www.w3.org/2000/svg">
<path d="M22.819 10.1214L21.5464 8.33065C21.4801 8.24053 21.4137 8.14467 21.3493 8.05456C21.3435 8.04689 21.3395 8.04113 21.3337 8.03347C20.3383 6.64726 19.3018 5.29173 18.2186 3.97072L14.961 0L12.8725 2.50974C11.6487 3.9803 10.4757 5.49113 9.36702 7.04798C9.1328 7.37775 8.89077 7.71328 8.64874 8.05072C8.46137 8.31147 8.26814 8.57989 8.0749 8.85023L6.75156 10.733C3.73989 15.1121 0.519366 20.6473 0.0411677 27.2639C-0.275029 31.62 1.24154 35.9493 4.20052 39.1435C7.01311 42.1805 10.8231 43.9041 14.9297 43.9981L15 44L15.0703 43.9981C19.1769 43.9041 22.9849 42.1786 25.7995 39.1435C28.7585 35.9493 30.275 31.6181 29.9588 27.2639C29.4533 20.3367 25.9459 14.5925 22.819 10.1214Z" fill="#4165B0"/>
<path d="M13.0229 35L13 28H10V25H13V23C13 20.3008 14.6715 19 17.0794 19C18.2328 19 19.2241 19.0859 19.5129 19.1243V21.9451L17.843 21.9458C16.5334 21.9458 16.2799 22.5681 16.2799 23.4812V25H20L19 28H16.2799V35H13.0229Z" fill="white"/>
</svg>
