<svg width="168" height="41" viewBox="0 0 168 41" fill="none" xmlns="http://www.w3.org/2000/svg">
<path fill-rule="evenodd" clip-rule="evenodd" d="M29.5679 8.1699C29.2274 5.06376 27.7021 2.79734 25.0342 1.43345C24.58 1.20146 24.0937 1.00217 23.5737 0.83661C19.8 -0.308276 16.6716 1.40853 15.1421 2.53474L15.119 2.55186C15.0305 2.62037 14.9432 2.68939 14.8563 2.75894C14.77 2.68888 14.6821 2.61985 14.5937 2.55134L14.5711 2.53422C13.0416 1.40853 9.91318 -0.310352 6.1237 0.840762C5.61949 1.00113 5.13318 1.20042 4.67897 1.43241C2.01107 2.79631 0.485808 5.06272 0.145282 8.16886C-0.177876 11.1214 0.673702 14.0054 2.74897 16.9859C5.7437 21.2878 10.2174 24.4184 14.1984 26.9136L14.8569 27.3262L15.5153 26.9136C19.4963 24.4184 23.97 21.2873 26.9648 16.9859C29.04 14.0059 29.8916 11.1219 29.5679 8.1699ZM14.8032 5.99223L14.8569 6.04257L14.9079 5.99482C15.3648 6.46451 15.8674 7.1532 15.8674 7.91871C15.8674 8.85341 15.3348 9.50525 14.8569 9.50525C14.379 9.50525 13.8463 8.85341 13.8463 7.91871C13.8463 7.17915 14.3284 6.48475 14.8032 5.99223ZM14.8569 24.4557C18.4537 22.1634 22.3548 19.3312 24.9405 15.6168C26.6937 13.0987 27.3884 10.8152 27.1274 8.42991C26.8779 6.14896 25.8237 4.56346 23.9048 3.58257C23.5711 3.41182 23.2116 3.26443 22.8363 3.14507C20.21 2.34842 17.9363 3.53275 16.7411 4.38181C17.4953 5.18001 18.3227 6.40119 18.3227 7.91819C18.3227 10.128 16.7679 11.9258 14.8574 11.9258C12.9469 11.9258 11.3921 10.128 11.3921 7.91819C11.3921 6.40067 12.22 5.18001 12.9742 4.38181C12.0579 3.731 10.5079 2.88401 8.64476 2.88401C8.07633 2.88401 7.47949 2.9629 6.86265 3.15026C6.50265 3.26495 6.14318 3.41182 5.80949 3.58257C3.89107 4.56346 2.83686 6.14896 2.58686 8.42991C2.32528 10.8152 3.02002 13.0987 4.77318 15.6168C7.35897 19.3318 11.26 22.1634 14.8569 24.4557Z" fill="#FF6B6F"/>
<path fill-rule="evenodd" clip-rule="evenodd" d="M16.6227 31.1647L16.9658 31.6494C17.809 32.8597 18.7548 34.4146 18.8911 36.2897C18.9764 37.4683 18.5674 38.6407 17.7695 39.5053C17.0106 40.3269 15.9837 40.794 14.8764 40.8194L14.8574 40.8199L14.8385 40.8194C13.7311 40.794 12.7037 40.3274 11.9453 39.5053C11.1474 38.6407 10.7385 37.4688 10.8237 36.2897C10.9527 34.4986 11.8211 33.0003 12.6332 31.815L12.99 31.3053C13.0318 31.2467 13.0735 31.1884 13.1144 31.1313C13.1246 31.1171 13.1347 31.1029 13.1448 31.0889C13.1626 31.064 13.1803 31.0391 13.1981 31.0144C13.2455 30.9482 13.2925 30.8824 13.3385 30.8175C13.6374 30.396 13.9537 29.9871 14.2837 29.589L14.8469 28.9097L15.7253 29.9845C16.0174 30.3421 16.2969 30.709 16.5653 31.0842L16.5695 31.0899C16.5755 31.0983 16.5815 31.1068 16.5875 31.1154C16.5991 31.1319 16.6109 31.1486 16.6227 31.1647ZM14.8564 38.908C15.4542 38.8893 16.0111 38.6319 16.4258 38.1824C16.8853 37.6842 17.1206 37.0069 17.0711 36.3239C16.9558 34.728 15.9837 33.3704 15.2027 32.28L15.1796 32.2476C15.0673 32.0905 14.9588 31.9388 14.8564 31.7911C14.7469 31.9489 14.6306 32.1113 14.51 32.2795L14.5099 32.2797C13.7289 33.3705 12.7569 34.7281 12.6416 36.3239C12.5921 37.0069 12.8274 37.6847 13.2869 38.1824C13.7016 38.6324 14.2585 38.8898 14.8564 38.908Z" fill="#FF6B6F"/>
<path fill-rule="evenodd" clip-rule="evenodd" d="M42.1507 12.1667C45.0749 12.1667 47.1175 14.1982 47.1175 17.1074C47.1175 19.3657 45.811 21.1151 43.6948 21.7107L47.2065 28.287H43.9469L40.7002 22.0257H38.9899V28.287H36.0947V12.1667H42.1507ZM41.6713 14.8028H38.9899V19.3896H41.6713C43.2077 19.3896 44.2 18.4934 44.2 17.1074C44.2 15.7075 43.2077 14.8028 41.6713 14.8028Z" fill="white"/>
<path fill-rule="evenodd" clip-rule="evenodd" d="M53.4882 26.0243C54.7611 25.7938 55.4982 25.0421 55.6789 23.7899L55.6975 23.6603L58.1713 23.9976L58.1558 24.1278C57.9431 25.9032 56.7162 27.9804 53.9116 28.4883C53.5653 28.551 53.22 28.5818 52.8794 28.5818C51.7748 28.5818 50.7162 28.2572 49.8227 27.6319C48.5591 26.7474 47.7319 25.3534 47.4307 23.5992C46.8105 19.9888 49.0903 17.3512 51.6526 16.8874C53.2547 16.5978 54.6803 16.8938 55.7741 17.7459C56.8493 18.5831 57.5729 19.9304 57.867 21.6431C57.9327 22.023 57.9663 22.4373 57.9394 22.5298L57.9167 22.6084L57.838 22.6222L50.3347 23.9806C50.7069 25.4139 52.0414 26.2857 53.4882 26.0243ZM52.0864 19.2812C50.6831 19.5357 50.0013 20.7581 50.0386 21.8349L54.89 20.9573C54.6581 20.0579 53.9748 19.2238 52.6951 19.2238C52.5057 19.2238 52.3028 19.2424 52.0864 19.2812Z" fill="white"/>
<path d="M71.5665 16.8179C70.0555 16.8179 68.9027 17.4182 68.1366 18.6034C67.5392 17.4803 66.3631 16.8179 64.9427 16.8179C63.9281 16.8179 62.6676 17.2524 61.9341 18.2124V17.1313H59.2568V28.287H62.0216V21.6916C62.0216 20.3268 62.854 19.4093 64.0927 19.4093C65.3118 19.4093 66.0116 20.1759 66.0116 21.5131V28.287H68.7546V21.6916C68.7546 20.3693 69.6258 19.4093 70.8257 19.4093C72.0453 19.4093 72.7446 20.1759 72.7446 21.5131V28.287H75.4437V21.0881C75.4437 17.9367 73.355 16.8179 71.5665 16.8179Z" fill="white"/>
<path fill-rule="evenodd" clip-rule="evenodd" d="M82.7073 26.0243C83.9797 25.7938 84.7168 25.0421 84.898 23.7894L84.9161 23.6608L87.3899 23.9982L87.3744 24.1283C87.1617 25.9038 85.9348 27.9809 83.1302 28.4888C82.7554 28.5563 82.3936 28.5887 82.0457 28.5887C79.061 28.5887 77.0991 26.2161 76.6498 23.5992C76.0297 19.9888 78.3094 17.3512 80.8717 16.8874C82.4744 16.5978 83.8994 16.8938 84.9932 17.7459C86.0684 18.5831 86.7921 19.9304 87.0861 21.6431C87.1446 21.9805 87.1881 22.4283 87.1585 22.5298L87.1358 22.6084L87.0571 22.6222L79.5533 23.9806C79.926 25.4134 81.2569 26.2863 82.7073 26.0243ZM81.3055 19.2812C79.9022 19.5357 79.2204 20.7581 79.2577 21.8349L84.1091 20.9573C83.8772 20.0579 83.1939 19.2238 81.9143 19.2238C81.7248 19.2238 81.5219 19.2424 81.3055 19.2812Z" fill="white"/>
<path d="M100.786 16.8179C99.2746 16.8179 98.1218 17.4182 97.3557 18.6034C96.7583 17.4803 95.5822 16.8179 94.1618 16.8179C93.1472 16.8179 91.8867 17.2524 91.1532 18.2124V17.1313H88.476V28.287H91.2407V21.6916C91.2407 20.3268 92.0731 19.4093 93.3118 19.4093C94.5309 19.4093 95.2307 20.1759 95.2307 21.5131V28.287H97.9737V21.6916C97.9737 20.3693 98.8449 19.4093 100.045 19.4093C101.264 19.4093 101.964 20.1759 101.964 21.5131V28.287H104.663V21.0881C104.663 17.9367 102.574 16.8179 100.786 16.8179Z" fill="white"/>
<path fill-rule="evenodd" clip-rule="evenodd" d="M109.369 18.1901C109.959 17.4734 111.093 16.8402 112.573 16.8402C115.63 16.8402 117.606 19.1219 117.606 22.6536C117.606 26.1838 115.549 28.5558 112.487 28.5558C111.163 28.5558 110.043 28.041 109.347 27.1294V28.287H106.626V13.0359H109.369V18.1901ZM112.072 25.9867C113.728 25.9867 114.797 24.6873 114.797 22.676C114.797 20.6609 113.753 19.4093 112.072 19.4098C110.417 19.4098 109.347 20.6917 109.347 22.676C109.347 24.6559 110.443 25.9867 112.072 25.9867Z" fill="white"/>
<path fill-rule="evenodd" clip-rule="evenodd" d="M124.333 26.0243C125.606 25.7938 126.343 25.0421 126.524 23.7899L126.543 23.6603L129.017 23.9976L129.001 24.1278C128.788 25.9032 127.561 27.9804 124.757 28.4883C124.411 28.551 124.065 28.5818 123.725 28.5818C122.62 28.5818 121.561 28.2572 120.668 27.6319C119.404 26.7474 118.577 25.3534 118.276 23.5992C117.656 19.9888 119.935 17.3512 122.498 16.8874C124.1 16.5978 125.526 16.8938 126.619 17.7459C127.694 18.5831 128.418 19.9304 128.712 21.6431C128.778 22.023 128.812 22.4373 128.785 22.5298L128.762 22.6084L128.683 22.6222L121.18 23.9806C121.552 25.4139 122.886 26.2857 124.333 26.0243ZM122.931 19.2812C121.528 19.5357 120.846 20.7581 120.883 21.8349L125.735 20.9573C125.503 20.0579 124.819 19.2238 123.54 19.2238C123.35 19.2238 123.147 19.2424 122.931 19.2812Z" fill="white"/>
<path d="M135.648 16.9968C134.39 16.9968 133.307 17.5562 132.705 18.4865V17.1312H129.984V28.287H132.771V22.9665C132.771 20.9329 133.687 19.9012 135.495 19.9012C135.754 19.9012 136.033 19.924 136.303 19.967L136.453 19.991V17.0877L136.349 17.0664C136.247 17.0457 135.974 16.9968 135.648 16.9968Z" fill="white"/>
<path d="M147.142 24.0561L142.25 12.248L142.217 12.1667H138.515V28.287H141.324V17.1833L145.88 28.287H148.318L152.918 17.1355V28.287H155.77V12.1667H152.003L147.142 24.0561Z" fill="white"/>
<path fill-rule="evenodd" clip-rule="evenodd" d="M165.104 23.7894L165.123 23.6603L167.596 23.9982L167.581 24.1283C167.368 25.9038 166.141 27.9809 163.337 28.4888C162.962 28.5563 162.6 28.5887 162.252 28.5887C159.267 28.5887 157.305 26.2161 156.856 23.5992C156.236 19.9888 158.516 17.3512 161.078 16.8874C162.68 16.5978 164.106 16.8938 165.2 17.7459C166.275 18.5831 166.998 19.9304 167.292 21.6431C167.351 21.9805 167.394 22.4283 167.365 22.5298L167.342 22.6084L167.263 22.6222L159.76 23.9806C160.132 25.4139 161.467 26.2857 162.914 26.0243C164.186 25.7938 164.923 25.0421 165.104 23.7894ZM161.511 19.2812C160.108 19.5357 159.426 20.7581 159.463 21.8349L164.315 20.9573C164.083 20.0579 163.4 19.2238 162.12 19.2238C161.931 19.2238 161.728 19.2424 161.511 19.2812Z" fill="white"/>
</svg>
