<svg width="30" height="44" viewBox="0 0 30 44" fill="none" xmlns="http://www.w3.org/2000/svg">
<path d="M22.819 10.1214L21.5464 8.33065C21.4801 8.24053 21.4137 8.14467 21.3493 8.05456C21.3435 8.04689 21.3395 8.04113 21.3337 8.03347C20.3383 6.64726 19.3018 5.29173 18.2186 3.97072L14.961 0L12.8725 2.50974C11.6487 3.9803 10.4757 5.49113 9.36702 7.04798C9.1328 7.37775 8.89077 7.71328 8.64874 8.05072C8.46137 8.31147 8.26814 8.57989 8.0749 8.85023L6.75156 10.733C3.73989 15.1121 0.519366 20.6473 0.0411677 27.2639C-0.275029 31.62 1.24154 35.9493 4.20052 39.1435C7.01311 42.1805 10.8231 43.9041 14.9297 43.9981L15 44L15.0703 43.9981C19.1769 43.9041 22.9849 42.1786 25.7995 39.1435C28.7585 35.9493 30.275 31.6181 29.9588 27.2639C29.4533 20.3367 25.9459 14.5925 22.819 10.1214Z" fill="#0D9FEF"/>
<path d="M23 23C22.4 23.3 21.8 23.4 21.1 23.5C21.8 23.1 22.3 22.5 22.5 21.7C21.9 22.1 21.2 22.3 20.4 22.5C19.8 21.9 18.9 21.5 18 21.5C16.3 21.5 14.8 23 14.8 24.8C14.8 25.1 14.8 25.3 14.9 25.5C12.2 25.4 9.7 24.1 8.1 22.1C7.8 22.6 7.7 23.1 7.7 23.8C7.7 24.9 8.3 25.9 9.2 26.5C8.7 26.5 8.2 26.3 7.7 26.1C7.7 27.7 8.8 29 10.3 29.3C10 29.4 9.7 29.4 9.4 29.4C9.2 29.4 9 29.4 8.8 29.3C9.2 30.6 10.4 31.6 11.9 31.6C10.8 32.5 9.4 33 7.8 33C7.5 33 7.3 33 7 33C8.5 33.9 10.2 34.5 12 34.5C18 34.5 21.3 29.5 21.3 25.2C21.3 25.1 21.3 24.9 21.3 24.8C22 24.3 22.6 23.7 23 23Z" fill="white"/>
</svg>
