<svg xmlns="http://www.w3.org/2000/svg">
    <circle id="Oval_41_" cx="23" cy="23" r="22" fill="none" stroke="#000" stroke-width="2"/> 
    <g
        id="surface48"
        transform="matrix(0.16456383,0,0,0.16456383,-0.09547647,-0.10305069)">
        <path
        style="fill-opacity:1;fill-rule:nonzero;stroke:none"
        d="m 267.02416,167.03683 -31.17968,-20.85547 31.17968,-20.85937 z m -107.63281,88.41406 v -58.13281 l 54.03516,-36.14063 43.61719,29.17188 z m -12.46094,-79.78515 -44.08593,-29.48438 44.08593,-29.48828 44.07813,29.48828 z m -12.46875,79.78515 -97.652339,-65.10156 43.621093,-29.17188 54.031246,36.14063 z M 26.828852,125.32199 58.012446,146.18136 26.828852,167.03683 Z M 134.46166,36.907924 V 95.044643 L 80.430414,131.18917 36.809321,102.00949 Z m 24.92969,0 97.65235,65.101566 -43.61719,29.17968 -54.03516,-36.144527 z m 132.44922,63.460936 c -0.0273,-0.18359 -0.0703,-0.35937 -0.10156,-0.542967 -0.0625,-0.351563 -0.125,-0.703125 -0.21875,-1.046875 -0.0547,-0.203125 -0.12891,-0.402344 -0.19141,-0.601563 -0.10156,-0.304687 -0.19922,-0.609375 -0.32422,-0.90625 -0.082,-0.207031 -0.17968,-0.414062 -0.27734,-0.609375 -0.12891,-0.285156 -0.26563,-0.558594 -0.42188,-0.824219 -0.11718,-0.199218 -0.23828,-0.390625 -0.35546,-0.582031 -0.16797,-0.257812 -0.33985,-0.511719 -0.52735,-0.753906 -0.13672,-0.183594 -0.28125,-0.367188 -0.42578,-0.542969 -0.19922,-0.226562 -0.40625,-0.457031 -0.62109,-0.671875 -0.16407,-0.167969 -0.32813,-0.335937 -0.4961,-0.488281 -0.23047,-0.203125 -0.46484,-0.402344 -0.70703,-0.59375 -0.1875,-0.144531 -0.37109,-0.289063 -0.5664,-0.425781 -0.0703,-0.04687 -0.13672,-0.109375 -0.20313,-0.152344 L 153.84057,3.2516736 c -4.1875,-2.79296905 -9.64062,-2.79296905 -13.82812,0 L 7.4538523,91.626674 c -0.070313,0.04297 -0.136719,0.105469 -0.207031,0.152344 -0.195313,0.136718 -0.378907,0.28125 -0.5625,0.425781 -0.242188,0.191406 -0.480469,0.390625 -0.703125,0.59375 -0.175782,0.152344 -0.335938,0.320312 -0.5,0.488281 -0.21875,0.214844 -0.425782,0.445313 -0.617188,0.671875 -0.152344,0.175781 -0.296875,0.359375 -0.433594,0.542969 -0.183593,0.242187 -0.359375,0.496094 -0.523437,0.753906 -0.125,0.191406 -0.242188,0.382813 -0.355469,0.582031 -0.15625,0.265625 -0.292969,0.539063 -0.425781,0.824219 -0.09375,0.195313 -0.195313,0.402344 -0.277344,0.609375 -0.121094,0.296875 -0.222656,0.601563 -0.320312,0.90625 -0.066407,0.199219 -0.136719,0.398438 -0.195313,0.601563 -0.089844,0.34375 -0.152344,0.695312 -0.21875,1.046875 -0.027344,0.183597 -0.074219,0.359377 -0.097656,0.542967 -0.074219,0.53125 -0.113281,1.07422 -0.113281,1.625 v 88.37109 c 0,0.55079 0.039062,1.09375 0.113281,1.63672 0.023437,0.17578 0.070312,0.35547 0.097656,0.53125 0.066406,0.35157 0.128906,0.70313 0.21875,1.04688 0.058594,0.20312 0.128906,0.40234 0.195313,0.60156 0.097656,0.30469 0.199218,0.60938 0.320312,0.91406 0.082031,0.20703 0.183594,0.40625 0.277344,0.60547 0.132812,0.28125 0.269531,0.55469 0.425781,0.82813 0.113281,0.19531 0.230469,0.38281 0.355469,0.57422 0.164062,0.25781 0.339844,0.51171 0.523437,0.7539 0.136719,0.19141 0.28125,0.36719 0.433594,0.54297 0.191406,0.23047 0.398438,0.45703 0.617188,0.67188 0.164062,0.16796 0.324218,0.33593 0.5,0.48828 0.222656,0.20703 0.460937,0.40625 0.703125,0.59375 0.183593,0.14843 0.367187,0.28906 0.5625,0.42968 0.070312,0.043 0.136718,0.10547 0.207031,0.14844 l 132.5585977,88.375 c 2.09375,1.39844 4.5039,2.10156 6.91796,2.10156 2.40625,0 4.81641,-0.70312 6.91016,-2.10156 l 132.5625,-88.375 c 0.0664,-0.043 0.13281,-0.10547 0.20313,-0.14844 0.19531,-0.14062 0.3789,-0.28125 0.5664,-0.42968 0.24219,-0.1875 0.47656,-0.38672 0.70703,-0.59375 0.16797,-0.15235 0.33203,-0.32032 0.4961,-0.48828 0.21484,-0.21485 0.42187,-0.44141 0.62109,-0.67188 0.14453,-0.17578 0.28906,-0.35156 0.42578,-0.54297 0.1875,-0.24219 0.35938,-0.49609 0.52735,-0.7539 0.11718,-0.19141 0.23828,-0.37891 0.35546,-0.57422 0.15625,-0.27344 0.29297,-0.54688 0.42188,-0.82813 0.0977,-0.19922 0.19531,-0.39844 0.27734,-0.60547 0.125,-0.30468 0.22266,-0.60937 0.32422,-0.91406 0.0625,-0.19922 0.13672,-0.39844 0.19141,-0.60156 0.0937,-0.34375 0.15625,-0.69531 0.21875,-1.04688 0.0312,-0.17578 0.0742,-0.35547 0.10156,-0.53125 0.0703,-0.54297 0.11328,-1.08593 0.11328,-1.63672 v -88.37109 c 0,-0.55078 -0.043,-1.09375 -0.11328,-1.625"
        id="path4" />
    </g>
<style>
svg:hover{
    cursor:pointer;
}
svg g{
    transform: scale(.09) translateY(104px) translateX(104px);
}
path, circle{
    transition: all .15s ease-in-out;
}
path{
    fill: #394e57;
}
circle{
    stroke: #394e57;
}
svg:hover path {
  fill: white;
}
svg:hover circle {
    stroke: black;
    fill: black;
}
</style>    
<a xmlns="http://www.w3.org/2000/svg" id="anchor" xlink:href="https://codepen.io/feferonka/" xmlns:xlink="http://www.w3.org/1999/xlink" target="_top">
    <rect x="0" y="0" width="100%" height="100%" fill-opacity="0"/>
</a>
</svg>