<?xml version="1.0" encoding="UTF-8" standalone="no"?>
<!-- Generator: Adobe Illustrator 19.1.0, SVG Export Plug-In . SVG Version: 6.00 Build 0)  -->

<svg
   xmlns:dc="http://purl.org/dc/elements/1.1/"
   xmlns:cc="http://creativecommons.org/ns#"
   xmlns:rdf="http://www.w3.org/1999/02/22-rdf-syntax-ns#"
   xmlns:svg="http://www.w3.org/2000/svg"
   xmlns="http://www.w3.org/2000/svg"
   xmlns:sodipodi="http://sodipodi.sourceforge.net/DTD/sodipodi-0.dtd"
   xmlns:inkscape="http://www.inkscape.org/namespaces/inkscape"
   width="20px"
   height="20px"
   enable-background="new 0 0 20 20"
   version="1.1"
   viewBox="0 0 20 20"
   xml:space="preserve"
   id="svg8"
   sodipodi:docname="email.svg"
   inkscape:version="0.92.3 (2405546, 2018-03-11)"><defs
   id="defs12" /><sodipodi:namedview
   pagecolor="#ffffff"
   bordercolor="#666666"
   borderopacity="1"
   objecttolerance="10"
   gridtolerance="10"
   guidetolerance="10"
   inkscape:pageopacity="0"
   inkscape:pageshadow="2"
   inkscape:window-width="1497"
   inkscape:window-height="912"
   id="namedview10"
   showgrid="false"
   inkscape:zoom="11.8"
   inkscape:cx="10"
   inkscape:cy="10"
   inkscape:window-x="304"
   inkscape:window-y="303"
   inkscape:window-maximized="0"
   inkscape:current-layer="svg8" /><metadata
   id="metadata2"><rdf:RDF><cc:Work
       rdf:about=""><dc:format>image/svg+xml</dc:format><dc:type
         rdf:resource="http://purl.org/dc/dcmitype/StillImage" /><dc:title /></cc:Work></rdf:RDF></metadata>
<path
   d="M19,18H1c-0.6,0-1-0.4-1-1V3c0-0.6,0.4-1,1-1h18c0.6,0,1,0.4,1,1v14C20,17.6,19.6,18,19,18z M2,16h16V4H2V16z"
   id="path4"
   style="fill:#627cad;fill-opacity:1" />
<path
   d="m10 12c-0.2 0-0.4-0.1-0.6-0.2l-5-4c-0.4-0.3-0.5-1-0.2-1.4s1-0.5 1.4-0.2l4.4 3.5 4.4-3.5c0.4-0.3 1.1-0.3 1.4 0.2 0.3 0.4 0.3 1.1-0.2 1.4l-5 4c-0.2 0.1-0.4 0.2-0.6 0.2z"
   id="path6"
   style="fill:#627cad;fill-opacity:0.73869348" />
</svg>