<svg xmlns="http://www.w3.org/2000/svg">
<circle id="Oval_41_" cx="23" cy="23" r="22" fill="none" stroke="#000" stroke-width="2"/> 
<path id="Shape_42_" d="m11 23.3c0 5.4 3.4 10 8.2 11.7 0.6 0.1 0.8-0.3 0.8-0.6v-2.1c-3.3 0.7-4-1.6-4-1.6-0.5-1.4-1.3-1.8-1.3-1.8-1.1-0.8 0.1-0.7 0.1-0.7 1.2 0.1 1.8 1.3 1.8 1.3 1.1 1.9 2.8 1.3 3.5 1 0.1-0.8 0.4-1.3 0.8-1.6-2.7-0.3-5.5-1.4-5.5-6.1 0-1.3 0.5-2.4 1.2-3.3-0.1-0.3-0.5-1.6 0.1-3.3 0 0 1-0.3 3.3 1.3 1-0.3 2-0.4 3-0.4s2 0.1 3 0.4c2.3-1.6 3.3-1.3 3.3-1.3 0.7 1.7 0.2 2.9 0.1 3.3 0.8 0.9 1.2 2 1.2 3.3 0 4.7-2.8 5.8-5.5 6.1 0.4 0.4 0.8 1.1 0.8 2.3v3.4c0 0.3 0.2 0.7 0.8 0.6 4.8-1.6 8.2-6.2 8.2-11.7 0-6.8-5.4-12.3-12-12.3-6.5-0.2-11.9 5.3-11.9 12.1z"/>

<style>
svg:hover{
    cursor:pointer;
}
path, circle{
    transition: all .15s ease-in-out;
}
path{
    fill: #394e57;
}
circle{
    stroke: #394e57;
}
svg:hover path {
  fill: white;
}
svg:hover circle {
  fill: black;
  stroke: black;
}
</style>
<a xmlns="http://www.w3.org/2000/svg" id="anchor" xlink:href="https://github.com/6feferonka9" xmlns:xlink="http://www.w3.org/1999/xlink" target="_top">
    <rect x="0" y="0" width="100%" height="100%" fill-opacity="0"/>
</a>
</svg>