<svg xmlns="http://www.w3.org/2000/svg">
    <circle id="Oval_6_" cx="23" cy="23" r="22" fill="none" stroke="#000" stroke-width="2"/>
    <path id="Shape_6_" d="m13.5 19.4h3.9v13.6h-3.9zm1.9-1.7c-1.4 0-2.4-1-2.4-2.4 0-1.3 0.9-2.4 2.4-2.4 1.4 0 2.3 1 2.4 2.4-0.1 1.4-1 2.4-2.4 2.4zm17.6 15.3h-4.4v-7c0-1.8-0.7-3.1-2.2-3.1-1.2 0-1.8 0.8-2.1 1.7-0.1 0.3-0.1 0.7-0.1 1.1v7.3h-4.4s0.1-12.5 0-13.6h4.4v2.1c0.3-0.9 1.7-2.3 3.9-2.3 2.8 0 4.9 2 4.9 6.2z"/>
<style>
svg:hover{
    cursor:pointer;
}
path, circle{
    transition: all .15s ease-in-out;
}
path{
    fill: #394e57;
}
circle{
    stroke: #394e57;
}
svg:hover path {
  fill: white;
}
svg:hover circle {
    stroke: #0077b5;
    fill: #0077B5;
}
</style>
<a xmlns="http://www.w3.org/2000/svg" id="anchor" xlink:href="https://www.linkedin.com/in/martin-mali/" xmlns:xlink="http://www.w3.org/1999/xlink" target="_top">
    <rect x="0" y="0" width="100%" height="100%" fill-opacity="0"/>
</a>
</svg>