<svg xmlns="http://www.w3.org/2000/svg">
    <circle xmlns="http://www.w3.org/2000/svg" id="Oval_1_" cx="23" cy="23" r="22" fill="none" stroke="#000" stroke-width="2"/>
    <path xmlns="http://www.w3.org/2000/svg" id="Shape_1_" d="m31.5 17.8c0.9-0.6 1.6-1.5 1.9-2.5-0.8 0.5-1.8 0.9-2.7 1.1-0.8-0.9-1.9-1.4-3.1-1.4-2.4 0-4.3 2-4.3 4.5 0 0.4 0 0.7 0.1 1-3.6-0.2-6.8-2-8.9-4.7-0.4 0.7-0.6 1.5-0.6 2.3 0 1.6 0.8 3 1.9 3.8-0.7 0-1.4-0.2-2-0.6v0.1c0 2.2 1.5 4 3.5 4.5-0.4 0.1-0.7 0.2-1.1 0.2-0.3 0-0.5 0-0.8-0.1 0.5 1.8 2.1 3.1 4 3.2-1.5 1.2-3.3 1.9-5.4 1.9-0.3 0-0.7 0-1-0.1 1.9 1.3 4.2 2 6.6 2 7.9 0 12.3-6.9 12.3-12.9v-0.6c0.8-0.6 1.6-1.4 2.1-2.4-0.8 0.4-1.6 0.6-2.5 0.7z"/>                                    
<style>
svg:hover{
    cursor:pointer;
}
path, circle{
    transition: all .15s ease-in-out;
}
path{
    fill: #394e57;
}
circle{
    stroke: #394e57;
}
svg:hover path {
  fill: white;
}
svg:hover circle {
    stroke: #08a0e9;
    fill: #08a0e9;
}
</style>
<a xmlns="http://www.w3.org/2000/svg" id="anchor" xlink:href="https://twitter.com/Martin_Heti" xmlns:xlink="http://www.w3.org/1999/xlink" target="_top">
    <rect x="0" y="0" width="100%" height="100%" fill-opacity="0"/>
</a>
</svg>