<?xml version="1.0" encoding="UTF-8" standalone="no"?>
<!-- Generator: Adobe Illustrator 19.1.0, SVG Export Plug-In . SVG Version: 6.00 Build 0)  -->

<svg
   xmlns:dc="http://purl.org/dc/elements/1.1/"
   xmlns:cc="http://creativecommons.org/ns#"
   xmlns:rdf="http://www.w3.org/1999/02/22-rdf-syntax-ns#"
   xmlns:svg="http://www.w3.org/2000/svg"
   xmlns="http://www.w3.org/2000/svg"
   xmlns:sodipodi="http://sodipodi.sourceforge.net/DTD/sodipodi-0.dtd"
   xmlns:inkscape="http://www.inkscape.org/namespaces/inkscape"
   version="1.1"
   id="Layer_1"
   x="0px"
   y="0px"
   width="20px"
   height="20px"
   viewBox="0 0 20 20"
   enable-background="new 0 0 20 20"
   xml:space="preserve"
   sodipodi:docname="user.svg"
   inkscape:version="0.92.3 (2405546, 2018-03-11)"><metadata
   id="metadata11"><rdf:RDF><cc:Work
       rdf:about=""><dc:format>image/svg+xml</dc:format><dc:type
         rdf:resource="http://purl.org/dc/dcmitype/StillImage" /></cc:Work></rdf:RDF></metadata><defs
   id="defs9" /><sodipodi:namedview
   pagecolor="#ffffff"
   bordercolor="#666666"
   borderopacity="1"
   objecttolerance="10"
   gridtolerance="10"
   guidetolerance="10"
   inkscape:pageopacity="0"
   inkscape:pageshadow="2"
   inkscape:window-width="1819"
   inkscape:window-height="1048"
   id="namedview7"
   showgrid="false"
   inkscape:zoom="11.8"
   inkscape:cx="7.3305085"
   inkscape:cy="10"
   inkscape:window-x="261"
   inkscape:window-y="106"
   inkscape:window-maximized="0"
   inkscape:current-layer="Layer_1" />
<path
   d="M10,10L10,10c-2.2,0-4-1.8-4-4V4c0-2.2,1.8-4,4-4h0c2.2,0,4,1.8,4,4v2C14,8.2,12.2,10,10,10z"
   id="path2"
   style="fill:#627caf;fill-opacity:0.67839193" />
<path
   d="M18,20H2c-0.6,0-1-0.4-1-1v-1c0-3.3,2.7-6,6-6h6c3.3,0,6,2.7,6,6v1C19,19.6,18.6,20,18,20z M3,18h14c0-2.2-1.8-4-4-4H7  C4.8,14,3,15.8,3,18z"
   id="path4"
   style="fill:#627cad;fill-opacity:1" />
</svg>