<svg xmlns="http://www.w3.org/2000/svg">
    <circle xmlns="http://www.w3.org/2000/svg" id="Oval_1_" cx="23" cy="23" r="22" fill="none" stroke="#000" stroke-width="2"/>
    <path d="m 4.925,18.002469 v -4.1 h 1.6 v -1.2 h -4.4 v 1.2 h 1.4 v 4 4.1 h 0.7 0.7 z m 12.6,-0.3 c 0,-0.1 0,-1 0.1,-1.2 0.1,-0.3 0.3,-0.5 0.6,-0.5 0.3,0 0.4,0.1 0.5,0.3 0.1,0.1 0.1,0.2 0.1,0.8 v 0.6 h -0.7 c -0.5,0.1 -0.6,0.1 -0.6,0 z m 1.2,4.4 c 0.6,-0.2 1.1,-0.6 1.2,-1.2 0,-0.1 0.1,-0.4 0.1,-0.7 v -0.5 h -1.2 v 0.4 c 0,0.5 -0.1,0.6 -0.2,0.8 -0.2,0.2 -0.5,0.2 -0.8,0 -0.3,-0.2 -0.3,-0.5 -0.3,-1.5 v -0.7 h 2.6 v -1 c 0,-1.2 0,-1.3 -0.2,-1.8 -0.4,-0.8 -1.4,-1.2 -2.3,-0.9 -0.6,0.2 -1,0.7 -1.2,1.3 -0.1,0.2 -0.1,0.4 -0.1,2.1 0,2.1 0,2.2 0.2,2.6 0.4,0.9 1.4,1.3 2.2,1.1 z m -5,-1.2 0.2,-0.2 c 0.1,-0.2 0.1,-0.3 0,-2.1 0,-1.9 0,-2 -0.1,-2.1 -0.2,-0.3 -0.5,-0.3 -0.9,-0.1 l -0.1,0.1 v 4.2 l 0.1,0.1 c 0.3,0.2 0.6,0.2 0.8,0.1 z m 0.8,1.2 c 0.2,-0.1 0.4,-0.3 0.5,-0.5 0.2,-0.5 0.2,-0.5 0.2,-3 0,-2.1 0,-2.3 -0.1,-2.6 -0.2,-0.7 -0.5,-1 -1.1,-1 -0.3,0 -0.6,0.2 -0.9,0.5 -0.1,0.1 -0.3,0.2 -0.3,0.2 v -1.5 -1.5 h -1.2 v 9.4 h 1.2 v -0.3 -0.3 c 0,0 0.2,0.1 0.3,0.2 0.5,0.4 0.9,0.6 1.4,0.4 z m -6.4,0 c 0.2,-0.1 0.5,-0.3 0.8,-0.5 l 0.2,-0.2 v 0.4 0.4 h 1.2 v -7 h -1.2 v 5.4 l -0.3,0.3 c -0.2,0.2 -0.3,0.3 -0.4,0.3 -0.2,0.1 -0.3,0 -0.4,-0.1 -0.1,-0.1 -0.1,-0.2 -0.1,-3 v -2.8 h -1.2 v 3 c 0,3.3 0,3.4 0.2,3.7 0.2,0.2 0.7,0.3 1.2,0.1 z m 0.5,2.9 h -2 c -2.3,-0.1 -3.9,-0.2 -4.3,-0.2 -0.5,-0.1 -1,-0.4 -1.3,-0.8 -0.5,-0.6 -0.7,-1.3 -0.8,-2.4 -0.3,-2.5 -0.3,-5.5 0,-7.9 0.1,-1.1 0.5,-1.8 1,-2.4 0.3,-0.3 0.6,-0.5 1,-0.6 0.9,-0.2 7.6,-0.4 11.6,-0.3 2.4,0.1 4.9,0.2 5.6,0.2 0.9,0.1 1.5,0.6 1.9,1.4 0.3,0.7 0.4,1.2 0.6,2.7 0.1,1.2 0.1,2 0.1,3.4 0,1.7 -0.1,3.2 -0.3,4.1 -0.2,0.9 -0.6,1.7 -1.1,2.1 -0.4,0.3 -0.8,0.5 -1.5,0.5 h -0.6 c -0.4,0 -2.5,0.1 -3.6,0.1 -1.7,0.1 -4.7,0.1 -6.3,0.1 z M 6.525,9.5024691 v -3.2 c 0,-0.5 0,-0.9 -0.4,-1.9 -0.1,-0.3 -0.3,-1 -0.5,-1.4 -1,-3.19999996 -1,-2.99999996 -0.9,-2.99999996 h 1.5 c 0,0 0.2,0.8 0.5,1.69999996 0.3,1 0.5,1.7 0.5,1.8 0,0 0.2,-0.5 0.3,-1.2 0.4,-1.49999996 0.6,-2.29999996 0.6,-2.29999996 h 0.8 0.7 v 0.1 c 0,0.1 -0.5,1.59999996 -1,3.19999996 -0.1,0.2 -0.2,0.6 -0.3,1 -0.1,0.4 -0.2,0.8 -0.3,1 l -0.1,0.3 v 1.9 c 0,1.8 0,1.9 -0.1,1.9 0,0.2 -1.3,0.1 -1.3,0.1 z m 8.8,0.1 c -0.3,0 -0.5,-0.2 -0.7,-0.4 -0.2,-0.3 -0.2,-0.3 -0.2,-3.7 v -3.1 h 1.4 v 2.9 c 0,3.1 0,3 0.2,3.1 0.2,0 0.4,0 0.6,-0.3 l 0.2,-0.2 v -5.4 h 1.4 v 7 h -0.1 -1.2 c 0,0 -0.1,-0.1 -0.1,-0.3 v -0.3 l -0.2,0.2 c -0.4,0.4 -0.9,0.6 -1.3,0.5 z m -3.4,-1.3 c 0.2,-0.2 0.2,-0.2 0.2,-2.2 v -2 c -0.1,-0.3 -0.2,-0.4 -0.4,-0.5 -0.3,-0.1 -0.5,0.1 -0.6,0.4 -0.1,0.2 -0.1,3.8 0,4 0.1,0.2 0.2,0.4 0.3,0.4 0.2,0 0.4,-0.1 0.5,-0.1 z m -0.6,1.3 c -0.6,-0.1 -1.2,-0.4 -1.4,-0.9 -0.3,-0.5 -0.3,-0.8 -0.3,-2.9 0,-1.7 0,-1.8 0.1,-2 0.2,-0.6 0.5,-1 0.9,-1.2 0.7,-0.3 1.4,-0.3 2,0.1 0.4,0.3 0.6,0.6 0.8,1.2 0.1,0.2 0.1,0.4 0.1,2.1 0,2.1 0,2.2 -0.2,2.6 -0.2,0.4 -0.7,0.8 -1.1,0.9 -0.3,0.1 -0.7,0.1 -0.9,0.1 z" />
<style>
svg:hover{
    cursor:pointer;
}
path, circle{
    transition: all .15s ease-in-out;
}
path{
    fill: #394e57;
    transform: translate(12px, 10px);
}
circle{
    stroke: #394e57;
}
svg:hover path {
  fill: #e62117;
}
svg:hover circle {
    stroke: #e62117;
}
</style>
<a xmlns="http://www.w3.org/2000/svg" id="anchor" xlink:href="https://www.youtube.com/user/FeFeronkaMetallica/" xmlns:xlink="http://www.w3.org/1999/xlink" target="_top">
    <rect x="0" y="0" width="100%" height="100%" fill-opacity="0"/>
</a>
</svg>